<svg xmlns="http://www.w3.org/2000/svg" viewBox="0 0 1600 900" role="img" aria-labelledby="title desc">
  <title id="title">Yalla Sahel dashboard placeholder</title>
  <desc id="desc">Replace this file or update the centralized dashboard preview image map with a real product screenshot.</desc>
  <rect width="1600" height="900" fill="#eff7ff"/>
  <rect x="80" y="72" width="1440" height="756" rx="38" fill="#ffffff" stroke="#cfe4fb" stroke-width="8"/>
  <rect x="132" y="132" width="348" height="636" rx="24" fill="#e8f3ff"/>
  <rect x="530" y="132" width="912" height="78" rx="18" fill="#e8f3ff"/>
  <rect x="530" y="254" width="252" height="194" rx="20" fill="#f5faff" stroke="#d7e9fb" stroke-width="5"/>
  <rect x="818" y="254" width="252" height="194" rx="20" fill="#f5faff" stroke="#d7e9fb" stroke-width="5"/>
  <rect x="1106" y="254" width="336" height="194" rx="20" fill="#f5faff" stroke="#d7e9fb" stroke-width="5"/>
  <rect x="530" y="492" width="912" height="276" rx="24" fill="#f5faff" stroke="#d7e9fb" stroke-width="5"/>
  <circle cx="238" cy="218" r="30" fill="#0878ff"/>
  <rect x="286" y="194" width="142" height="20" rx="10" fill="#8fbff3"/>
  <rect x="182" y="306" width="232" height="16" rx="8" fill="#b7d6f5"/>
  <rect x="182" y="360" width="182" height="16" rx="8" fill="#b7d6f5"/>
  <rect x="182" y="414" width="210" height="16" rx="8" fill="#b7d6f5"/>
  <path d="M608 686c76-88 139-65 198-128 80-86 150 21 220-61 55-65 119-58 204-14 67 35 121-26 176-89" fill="none" stroke="#0878ff" stroke-linecap="round" stroke-width="18"/>
  <text x="800" y="555" fill="#0058c7" font-family="Arial, sans-serif" font-size="44" font-weight="700" text-anchor="middle">Yalla Sahel Dashboard Preview</text>
</svg>
